<?xml version="1.0" encoding="UTF-8" ?>
<!DOCTYPE svg PUBLIC "-//W3C//DTD SVG 1.1//EN" "http://www.w3.org/Graphics/SVG/1.1/DTD/svg11.dtd">
<svg width="124pt" height="498pt" viewBox="0 0 124 498" version="1.1" xmlns="http://www.w3.org/2000/svg">
<g id="#11a9a0fe">
<path class="arrow__icon" fill="#11a9a0" opacity="1.00" d=" M 0.00 0.46 C 1.17 1.89 2.02 3.54 2.80 5.21 C 42.69 84.00 82.60 162.78 122.52 241.56 C 124.75 247.12 124.03 253.75 120.75 258.78 C 86.01 327.36 51.25 395.94 16.52 464.54 C 11.01 475.12 5.94 485.97 0.00 496.31 L 0.00 493.32 C 0.09 491.53 0.37 489.71 1.17 488.10 C 40.79 409.75 80.57 331.47 120.15 253.10 C 121.98 249.95 121.55 246.21 119.81 243.14 C 80.29 165.03 40.68 86.96 1.16 8.85 C 0.38 7.27 0.10 5.51 0.00 3.76 L 0.00 0.46 Z" />
</g>
</svg>
