<?xml version="1.0" encoding="UTF-8" ?>
<!DOCTYPE svg PUBLIC "-//W3C//DTD SVG 1.1//EN" "http://www.w3.org/Graphics/SVG/1.1/DTD/svg11.dtd">
<svg width="514pt" height="113pt" viewBox="0 0 514 113" version="1.1" xmlns="http://www.w3.org/2000/svg">
<g id="#e8e8e8ff">
<path class="logo__path" fill="#e8e8e8" opacity="1.00" d=" M 0.00 0.00 L 514.00 0.00 L 514.00 113.00 L 0.00 113.00 L 0.00 0.00 M 67.47 24.04 C 57.68 29.52 47.94 35.13 38.04 40.44 C 38.05 42.04 38.04 43.64 38.04 45.24 C 47.47 50.45 56.78 55.88 66.27 60.96 C 67.62 62.02 69.08 60.65 70.34 60.17 C 79.21 55.18 88.08 50.21 96.95 45.25 C 96.95 43.64 96.94 42.04 96.95 40.43 C 87.04 35.13 77.31 29.48 67.47 24.04 M 124.63 38.65 C 119.34 41.31 118.21 49.45 122.58 53.46 C 126.77 58.33 134.70 59.40 136.76 66.09 C 136.01 68.64 134.07 71.42 131.05 71.03 C 126.53 71.80 122.85 68.74 119.98 65.67 C 120.00 68.01 120.00 70.36 120.00 72.71 C 124.79 75.83 131.28 77.60 136.57 74.65 C 142.49 71.37 142.93 62.27 138.21 57.79 C 134.67 54.43 129.73 53.02 126.23 49.62 C 124.12 47.47 124.78 43.75 127.52 42.50 C 131.94 40.76 136.63 42.76 140.03 45.68 C 140.00 43.57 139.98 41.46 139.96 39.35 C 135.32 36.87 129.35 35.70 124.63 38.65 M 147.47 37.46 C 147.45 50.15 147.46 62.84 147.47 75.53 C 149.30 75.54 151.14 75.55 152.98 75.56 C 153.03 65.73 152.98 55.90 153.00 46.07 C 157.11 50.98 160.90 56.14 165.10 60.97 C 169.48 56.25 173.03 50.84 177.35 46.07 C 177.59 55.89 177.39 65.71 177.47 75.53 C 179.30 75.54 181.14 75.54 182.98 75.56 C 183.02 62.84 183.00 50.13 182.99 37.42 C 180.93 37.70 178.12 36.64 176.77 38.76 C 172.92 43.55 169.05 48.35 165.13 53.09 C 160.86 47.92 156.80 42.60 152.49 37.47 C 150.82 37.47 149.14 37.47 147.47 37.46 M 202.67 37.48 C 197.61 50.17 192.38 62.79 187.46 75.54 C 199.74 75.62 212.01 75.58 224.29 75.57 C 219.40 62.73 214.40 49.91 208.90 37.33 C 206.82 37.39 204.75 37.44 202.67 37.48 M 227.98 37.50 C 228.04 50.18 227.97 62.87 228.01 75.55 C 229.68 75.54 231.35 75.54 233.02 75.54 C 233.05 70.55 233.03 65.56 233.05 60.57 C 234.99 60.57 236.94 60.58 238.89 60.60 C 242.10 65.62 245.15 70.74 248.64 75.58 C 250.43 75.58 252.23 75.58 254.03 75.59 C 250.84 70.41 247.37 65.42 244.04 60.33 C 245.79 59.72 247.68 59.34 249.20 58.23 C 256.47 53.44 254.58 40.24 246.01 37.99 C 240.06 36.95 233.98 37.63 227.98 37.50 M 257.07 37.41 C 257.04 39.01 256.98 40.61 256.91 42.22 C 261.27 42.22 265.63 42.22 269.99 42.22 C 270.02 53.33 269.98 64.44 270.01 75.55 C 271.85 75.54 273.69 75.54 275.53 75.53 C 275.60 64.43 275.42 53.32 275.63 42.22 C 280.08 42.22 284.53 42.22 288.98 42.22 C 289.00 40.65 289.02 39.08 289.04 37.51 C 278.39 37.36 267.73 37.56 257.07 37.41 M 310.02 37.45 C 309.99 50.15 309.98 62.86 310.02 75.56 C 311.86 75.55 313.69 75.54 315.54 75.53 C 315.54 69.68 315.53 63.84 315.54 58.00 C 320.54 57.99 325.54 58.01 330.55 57.99 C 330.54 56.32 330.54 54.65 330.54 52.99 C 325.56 52.94 320.58 52.97 315.61 52.95 C 315.49 49.37 315.50 45.79 315.65 42.22 C 320.59 42.23 325.54 42.20 330.48 42.24 C 330.49 40.65 330.53 39.06 330.56 37.47 C 323.71 37.45 316.86 37.47 310.02 37.45 M 339.99 37.45 C 339.94 50.15 339.93 62.85 340.00 75.55 C 347.33 75.53 354.65 75.53 361.98 75.55 C 361.99 73.96 361.99 72.37 362.01 70.78 C 356.43 70.76 350.86 70.83 345.30 70.73 C 345.19 66.82 345.20 62.91 345.22 59.01 C 350.48 58.99 355.74 59.00 361.00 59.00 C 361.00 57.32 360.99 55.64 361.00 53.96 C 355.75 53.94 350.51 54.01 345.27 53.91 C 345.19 50.04 345.19 46.17 345.27 42.30 C 350.58 42.15 355.89 42.25 361.20 42.21 C 361.21 40.64 361.23 39.08 361.25 37.51 C 354.16 37.40 347.08 37.49 339.99 37.45 M 368.76 37.49 C 368.77 39.07 368.78 40.64 368.79 42.22 C 373.16 42.22 377.53 42.20 381.90 42.26 C 382.05 53.36 381.89 64.47 381.99 75.57 C 383.65 75.39 385.68 75.94 387.13 75.21 C 387.39 64.24 387.06 53.25 387.29 42.28 C 391.69 42.19 396.10 42.22 400.51 42.23 C 400.52 40.64 400.53 39.05 400.54 37.47 C 389.95 37.47 379.36 37.42 368.76 37.49 M 410.28 40.17 C 404.38 43.56 401.38 50.34 401.04 56.93 C 401.43 63.22 404.48 69.57 409.97 72.92 C 417.69 77.67 427.79 76.83 435.61 72.75 C 435.56 70.80 435.55 68.86 435.55 66.92 C 428.89 71.16 419.59 73.08 412.71 68.31 C 405.05 63.26 404.89 50.60 412.25 45.21 C 418.85 39.93 428.31 41.70 435.05 45.78 C 435.04 43.87 435.04 41.96 435.06 40.06 C 427.35 36.40 417.76 35.41 410.28 40.17 M 442.02 37.44 C 442.01 50.16 441.94 62.87 442.05 75.58 C 443.87 75.56 445.70 75.54 447.53 75.52 C 447.55 70.01 447.53 64.51 447.54 59.00 C 454.68 59.00 461.82 59.00 468.96 59.00 C 468.98 64.53 468.91 70.05 469.01 75.58 C 470.75 75.54 472.49 75.52 474.23 75.49 C 474.20 62.82 474.23 50.15 474.22 37.47 C 472.47 37.47 470.72 37.46 468.98 37.45 C 468.94 42.97 468.97 48.48 468.96 54.00 C 461.82 54.00 454.68 54.00 447.54 54.00 C 447.53 48.49 447.54 42.98 447.53 37.47 C 445.69 37.46 443.85 37.45 442.02 37.44 M 38.10 54.67 C 38.08 55.94 38.06 57.20 38.04 58.47 C 47.93 63.76 57.60 69.46 67.46 74.79 C 77.38 69.52 87.02 63.75 96.93 58.49 C 96.93 57.21 96.92 55.94 96.92 54.67 C 87.01 60.05 77.27 65.73 67.36 71.11 C 57.68 65.50 47.88 60.09 38.10 54.67 M 38.05 67.73 C 38.05 69.01 38.04 70.29 38.05 71.56 C 47.94 76.87 57.68 82.46 67.46 87.97 C 77.31 82.53 87.03 76.86 96.95 71.57 C 96.95 70.29 96.96 69.01 96.96 67.73 C 87.14 73.14 77.33 78.56 67.64 84.19 C 57.73 78.79 47.97 73.10 38.05 67.73 Z" />
<path class="logo__path" fill="#e8e8e8" opacity="1.00" d=" M 40.80 42.77 C 49.79 37.84 58.65 32.70 67.66 27.81 C 76.44 32.99 85.41 37.83 94.29 42.82 C 85.45 48.05 76.40 52.89 67.47 57.96 C 58.63 52.79 49.48 48.18 40.80 42.77 Z" />
<path class="logo__path" fill="#e8e8e8" opacity="1.00" d=" M 233.05 41.61 C 237.68 41.76 243.37 40.42 247.00 44.10 C 250.68 47.60 248.73 54.50 243.96 55.89 C 240.39 56.79 236.68 56.43 233.05 56.39 C 233.03 51.46 233.03 46.54 233.05 41.61 Z" />
<path class="logo__path" fill="#e8e8e8" opacity="1.00" d=" M 205.74 42.70 C 210.15 51.82 213.50 61.47 217.22 70.91 C 209.71 71.00 202.19 70.99 194.68 70.92 C 198.13 61.42 202.09 52.12 205.74 42.70 Z" />
</g>
<g id="#38383aff">
<path class="logo__path" fill="#38383a" opacity="1.00" d=" M 67.47 24.04 C 77.31 29.48 87.04 35.13 96.95 40.43 C 96.94 42.04 96.95 43.64 96.95 45.25 C 88.08 50.21 79.21 55.18 70.34 60.17 C 69.08 60.65 67.62 62.02 66.27 60.96 C 56.78 55.88 47.47 50.45 38.04 45.24 C 38.04 43.64 38.05 42.04 38.04 40.44 C 47.94 35.13 57.68 29.52 67.47 24.04 M 40.80 42.77 C 49.48 48.18 58.63 52.79 67.47 57.96 C 76.40 52.89 85.45 48.05 94.29 42.82 C 85.41 37.83 76.44 32.99 67.66 27.81 C 58.65 32.70 49.79 37.84 40.80 42.77 Z" />
<path class="logo__path" fill="#38383a" opacity="1.00" d=" M 124.63 38.65 C 129.35 35.70 135.32 36.87 139.96 39.35 C 139.98 41.46 140.00 43.57 140.03 45.68 C 136.63 42.76 131.94 40.76 127.52 42.50 C 124.78 43.75 124.12 47.47 126.23 49.62 C 129.73 53.02 134.67 54.43 138.21 57.79 C 142.93 62.27 142.49 71.37 136.57 74.65 C 131.28 77.60 124.79 75.83 120.00 72.71 C 120.00 70.36 120.00 68.01 119.98 65.67 C 122.85 68.74 126.53 71.80 131.05 71.03 C 134.07 71.42 136.01 68.64 136.76 66.09 C 134.70 59.40 126.77 58.33 122.58 53.46 C 118.21 49.45 119.34 41.31 124.63 38.65 Z" />
<path class="logo__path" fill="#38383a" opacity="1.00" d=" M 147.47 37.46 C 149.14 37.47 150.82 37.47 152.49 37.47 C 156.80 42.60 160.86 47.92 165.13 53.09 C 169.05 48.35 172.92 43.55 176.77 38.76 C 178.12 36.64 180.93 37.70 182.99 37.42 C 183.00 50.13 183.02 62.84 182.98 75.56 C 181.14 75.54 179.30 75.54 177.47 75.53 C 177.39 65.71 177.59 55.89 177.35 46.07 C 173.03 50.84 169.48 56.25 165.10 60.97 C 160.90 56.14 157.11 50.98 153.00 46.07 C 152.98 55.90 153.03 65.73 152.98 75.56 C 151.14 75.55 149.30 75.54 147.47 75.53 C 147.46 62.84 147.45 50.15 147.47 37.46 Z" />
<path class="logo__path" fill="#38383a" opacity="1.00" d=" M 227.98 37.50 C 233.98 37.63 240.06 36.95 246.01 37.99 C 254.58 40.24 256.47 53.44 249.20 58.23 C 247.68 59.34 245.79 59.72 244.04 60.33 C 247.37 65.42 250.84 70.41 254.03 75.59 C 252.23 75.58 250.43 75.58 248.64 75.58 C 245.15 70.74 242.10 65.62 238.89 60.60 C 236.94 60.58 234.99 60.57 233.05 60.57 C 233.03 65.56 233.05 70.55 233.02 75.54 C 231.35 75.54 229.68 75.54 228.01 75.55 C 227.97 62.87 228.04 50.18 227.98 37.50 M 233.05 41.61 C 233.03 46.54 233.03 51.46 233.05 56.39 C 236.68 56.43 240.39 56.79 243.96 55.89 C 248.73 54.50 250.68 47.60 247.00 44.10 C 243.37 40.42 237.68 41.76 233.05 41.61 Z" />
<path class="logo__path" fill="#38383a" opacity="1.00" d=" M 257.07 37.41 C 267.73 37.56 278.39 37.36 289.04 37.51 C 289.02 39.08 289.00 40.65 288.98 42.22 C 284.53 42.22 280.08 42.22 275.63 42.22 C 275.42 53.32 275.60 64.43 275.53 75.53 C 273.69 75.54 271.85 75.54 270.01 75.55 C 269.98 64.44 270.02 53.33 269.99 42.22 C 265.63 42.22 261.27 42.22 256.91 42.22 C 256.98 40.61 257.04 39.01 257.07 37.41 Z" />
<path class="logo__path" fill="#38383a" opacity="1.00" d=" M 310.02 37.45 C 316.86 37.47 323.71 37.45 330.56 37.47 C 330.53 39.06 330.49 40.65 330.48 42.24 C 325.54 42.20 320.59 42.23 315.65 42.22 C 315.50 45.79 315.49 49.37 315.61 52.95 C 320.58 52.97 325.56 52.94 330.54 52.99 C 330.54 54.65 330.54 56.32 330.55 57.99 C 325.54 58.01 320.54 57.99 315.54 58.00 C 315.53 63.84 315.54 69.68 315.54 75.53 C 313.69 75.54 311.86 75.55 310.02 75.56 C 309.98 62.86 309.99 50.15 310.02 37.45 Z" />
<path class="logo__path" fill="#38383a" opacity="1.00" d=" M 339.99 37.45 C 347.08 37.49 354.16 37.40 361.25 37.51 C 361.23 39.08 361.21 40.64 361.20 42.21 C 355.89 42.25 350.58 42.15 345.27 42.30 C 345.19 46.17 345.19 50.04 345.27 53.91 C 350.51 54.01 355.75 53.94 361.00 53.96 C 360.99 55.64 361.00 57.32 361.00 59.00 C 355.74 59.00 350.48 58.99 345.22 59.01 C 345.20 62.91 345.19 66.82 345.30 70.73 C 350.86 70.83 356.43 70.76 362.01 70.78 C 361.99 72.37 361.99 73.96 361.98 75.55 C 354.65 75.53 347.33 75.53 340.00 75.55 C 339.93 62.85 339.94 50.15 339.99 37.45 Z" />
<path class="logo__path" fill="#38383a" opacity="1.00" d=" M 368.76 37.49 C 379.36 37.42 389.95 37.47 400.54 37.47 C 400.53 39.05 400.52 40.64 400.51 42.23 C 396.10 42.22 391.69 42.19 387.29 42.28 C 387.06 53.25 387.39 64.24 387.13 75.21 C 385.68 75.94 383.65 75.39 381.99 75.57 C 381.89 64.47 382.05 53.36 381.90 42.26 C 377.53 42.20 373.16 42.22 368.79 42.22 C 368.78 40.64 368.77 39.07 368.76 37.49 Z" />
<path class="logo__path" fill="#38383a" opacity="1.00" d=" M 410.28 40.17 C 417.76 35.41 427.35 36.40 435.06 40.06 C 435.04 41.96 435.04 43.87 435.05 45.78 C 428.31 41.70 418.85 39.93 412.25 45.21 C 404.89 50.60 405.05 63.26 412.71 68.31 C 419.59 73.08 428.89 71.16 435.55 66.92 C 435.55 68.86 435.56 70.80 435.61 72.75 C 427.79 76.83 417.69 77.67 409.97 72.92 C 404.48 69.57 401.43 63.22 401.04 56.93 C 401.38 50.34 404.38 43.56 410.28 40.17 Z" />
<path class="logo__path" fill="#38383a" opacity="1.00" d=" M 442.02 37.44 C 443.85 37.45 445.69 37.46 447.53 37.47 C 447.54 42.98 447.53 48.49 447.54 54.00 C 454.68 54.00 461.82 54.00 468.96 54.00 C 468.97 48.48 468.94 42.97 468.98 37.45 C 470.72 37.46 472.47 37.47 474.22 37.47 C 474.23 50.15 474.20 62.82 474.23 75.49 C 472.49 75.52 470.75 75.54 469.01 75.58 C 468.91 70.05 468.98 64.53 468.96 59.00 C 461.82 59.00 454.68 59.00 447.54 59.00 C 447.53 64.51 447.55 70.01 447.53 75.52 C 445.70 75.54 443.87 75.56 442.05 75.58 C 441.94 62.87 442.01 50.16 442.02 37.44 Z" />
<path class="logo__path" fill="#38383a" opacity="1.00" d=" M 38.05 67.73 C 47.97 73.10 57.73 78.79 67.64 84.19 C 77.33 78.56 87.14 73.14 96.96 67.73 C 96.96 69.01 96.95 70.29 96.95 71.57 C 87.03 76.86 77.31 82.53 67.46 87.97 C 57.68 82.46 47.94 76.87 38.05 71.56 C 38.04 70.29 38.05 69.01 38.05 67.73 Z" />
</g>
<g id="#17a99fff">
<path class="logo__path" fill="#17a99f" opacity="1.00" d=" M 202.67 37.48 C 204.75 37.44 206.82 37.39 208.90 37.33 C 214.40 49.91 219.40 62.73 224.29 75.57 C 212.01 75.58 199.74 75.62 187.46 75.54 C 192.38 62.79 197.61 50.17 202.67 37.48 M 205.74 42.70 C 202.09 52.12 198.13 61.42 194.68 70.92 C 202.19 70.99 209.71 71.00 217.22 70.91 C 213.50 61.47 210.15 51.82 205.74 42.70 Z" />
<path class="logo__path" fill="#17a99f" opacity="1.00" d=" M 38.10 54.67 C 47.88 60.09 57.68 65.50 67.36 71.11 C 77.27 65.73 87.01 60.05 96.92 54.67 C 96.92 55.94 96.93 57.21 96.93 58.49 C 87.02 63.75 77.38 69.52 67.46 74.79 C 57.60 69.46 47.93 63.76 38.04 58.47 C 38.06 57.20 38.08 55.94 38.10 54.67 Z" />
</g>
</svg>
