<?xml version="1.0" encoding="UTF-8" ?>
<!DOCTYPE svg PUBLIC "-//W3C//DTD SVG 1.1//EN" "http://www.w3.org/Graphics/SVG/1.1/DTD/svg11.dtd">
<svg width="112pt" height="94pt" viewBox="0 0 112 94" version="1.1" xmlns="http://www.w3.org/2000/svg">
<g id="#404040ff">
<path fill="#404040" opacity="1.00" d=" M 52.50 0.00 L 59.32 0.00 C 77.30 1.36 93.93 13.93 99.59 31.13 C 99.95 32.44 98.49 34.21 97.11 33.91 C 95.33 34.12 94.78 32.12 94.22 30.86 C 89.34 18.48 78.08 8.90 65.11 5.99 C 53.48 3.22 40.73 5.99 31.24 13.24 C 21.11 20.74 14.99 33.01 14.55 45.56 C 16.67 43.41 18.67 41.11 21.03 39.22 C 23.17 38.49 25.35 40.96 24.00 42.91 C 20.76 46.38 17.36 49.73 13.98 53.08 C 13.00 54.25 11.09 54.05 10.19 52.89 C 6.78 49.46 3.26 46.14 0.00 42.56 L 0.00 40.60 C 0.95 39.59 2.20 38.56 3.62 39.41 C 5.80 41.27 7.73 43.40 9.70 45.47 C 9.94 35.94 13.09 26.50 18.79 18.84 C 26.61 8.05 39.25 1.14 52.50 0.00 Z" />
<path fill="#404040" opacity="1.00" d=" M 53.60 11.89 C 53.57 9.94 56.38 9.03 57.68 10.38 C 58.98 11.53 58.24 13.50 58.45 15.00 C 58.45 25.15 58.39 35.30 58.48 45.45 C 63.06 50.18 67.81 54.74 72.39 59.47 C 74.17 61.16 72.30 64.31 69.92 63.66 C 66.61 61.15 63.96 57.87 60.96 54.99 C 58.58 52.30 55.45 50.15 53.59 47.08 C 53.54 35.35 53.53 23.62 53.60 11.89 Z" />
<path fill="#404040" opacity="1.00" d=" M 89.96 47.99 C 93.05 45.13 95.70 41.79 99.01 39.18 C 100.99 38.69 102.17 40.52 103.42 41.68 C 106.25 44.63 109.28 47.38 112.00 50.44 L 112.00 52.39 C 111.12 53.42 109.81 54.37 108.43 53.61 C 106.22 51.77 104.29 49.61 102.31 47.53 C 102.06 57.05 98.91 66.49 93.22 74.14 C 84.52 86.12 69.81 93.50 54.98 93.00 C 36.14 92.81 18.31 79.76 12.41 61.88 C 11.77 58.99 16.49 57.89 17.19 60.79 C 21.83 73.45 32.85 83.56 45.98 86.79 C 58.79 90.17 73.07 86.70 82.99 77.95 C 91.84 70.39 97.01 59.02 97.45 47.44 C 95.34 49.58 93.34 51.86 91.01 53.77 C 89.66 54.08 87.93 53.55 87.69 51.99 C 87.21 50.21 88.95 49.12 89.96 47.99 Z" />
</g>
</svg>
