<?xml version="1.0" encoding="UTF-8" ?>
<!DOCTYPE svg PUBLIC "-//W3C//DTD SVG 1.1//EN" "http://www.w3.org/Graphics/SVG/1.1/DTD/svg11.dtd">
<svg width="118pt" height="100pt" viewBox="0 0 118 100" version="1.1" xmlns="http://www.w3.org/2000/svg">
<g id="#404040ff">
<path fill="#404040" opacity="1.00" d=" M 39.25 13.97 C 46.97 3.87 60.51 -1.58 73.04 1.15 C 87.41 3.94 98.69 17.22 99.43 31.80 C 109.87 34.72 117.75 45.13 116.98 56.07 C 116.63 65.20 110.31 73.69 101.71 76.76 C 96.71 78.71 91.24 78.21 85.99 78.23 C 83.61 78.65 82.95 74.68 85.35 74.34 C 89.96 73.93 94.71 74.87 99.19 73.43 C 106.11 71.40 111.59 65.25 112.77 58.13 C 114.29 49.99 109.89 41.30 102.62 37.43 C 98.19 34.86 92.89 34.96 87.97 35.43 C 85.89 36.04 84.88 32.58 86.78 31.77 C 89.57 31.01 92.51 31.31 95.36 31.30 C 94.48 20.33 86.96 10.22 76.66 6.33 C 64.74 1.51 50.40 6.20 42.62 16.17 C 45.88 19.28 48.35 23.37 48.69 27.95 C 48.93 29.33 48.88 31.31 47.11 31.61 C 44.86 31.98 44.74 29.45 44.65 27.90 C 44.18 23.50 41.25 19.54 37.33 17.55 C 31.69 14.54 24.14 16.30 20.36 21.45 C 17.77 24.60 17.42 28.79 17.57 32.71 C 9.17 36.56 3.21 45.70 4.03 55.04 C 4.64 63.10 10.37 70.43 18.01 73.05 C 23.68 75.15 29.81 73.80 35.68 74.36 C 37.82 74.82 37.32 78.48 35.10 78.21 C 28.38 78.15 21.28 79.03 14.98 76.12 C 6.72 72.62 0.91 64.41 0.00 55.53 L 0.00 50.47 C 1.27 42.21 6.17 34.50 13.51 30.38 C 13.52 24.71 15.99 18.99 20.65 15.62 C 25.90 11.56 33.34 11.13 39.25 13.97 Z" />
<path fill="#404040" opacity="1.00" d=" M 58.54 52.44 C 58.93 50.20 62.78 50.70 62.42 53.03 C 62.47 66.29 62.41 79.56 62.45 92.83 C 66.55 88.76 70.58 84.63 74.74 80.63 C 75.73 79.51 78.25 80.32 77.95 81.97 C 78.32 83.40 76.64 84.04 75.96 85.02 C 71.18 89.63 66.57 94.41 61.82 99.06 C 60.49 100.50 58.92 99.03 57.98 97.98 C 52.96 92.97 47.87 88.02 42.97 82.90 C 42.09 80.96 44.83 79.09 46.24 80.68 C 50.37 84.70 54.38 88.85 58.50 92.88 C 58.53 79.40 58.43 65.91 58.54 52.44 Z" />
</g>
</svg>
