<?xml version="1.0" encoding="UTF-8" ?>
<!DOCTYPE svg PUBLIC "-//W3C//DTD SVG 1.1//EN" "http://www.w3.org/Graphics/SVG/1.1/DTD/svg11.dtd">
<svg width="94pt" height="94pt" viewBox="0 0 94 94" version="1.1" xmlns="http://www.w3.org/2000/svg">
<g id="#404040ff">
<path fill="#404040" opacity="1.00" d=" M 45.59 0.00 L 47.96 0.00 C 59.13 0.53 70.14 4.89 78.27 12.64 C 88.47 22.06 93.99 36.26 92.78 50.11 C 91.81 63.65 84.41 76.51 73.29 84.27 C 63.20 91.48 50.14 94.30 37.96 92.00 C 24.79 89.67 12.90 81.25 6.23 69.68 C 2.66 63.67 0.72 56.81 0.00 49.89 L 0.00 43.27 C 0.91 31.48 6.31 20.08 15.13 12.17 C 23.37 4.56 34.43 0.34 45.59 0.00 M 42.37 4.55 C 32.27 5.50 22.61 10.25 15.69 17.66 C 8.28 25.47 4.07 36.22 4.28 46.98 C 4.34 58.84 9.82 70.48 18.81 78.19 C 28.04 86.28 40.93 89.96 53.04 87.97 C 64.59 86.23 75.22 79.36 81.64 69.61 C 87.59 60.72 89.91 49.48 87.96 38.96 C 86.05 28.00 79.49 17.99 70.30 11.74 C 62.22 6.16 52.14 3.59 42.37 4.55 Z" />
<path fill="#404040" opacity="1.00" d=" M 34.75 27.76 C 41.48 20.01 57.52 22.84 58.71 33.91 C 60.22 40.65 54.07 44.84 50.16 49.17 C 47.76 51.42 47.42 54.79 47.22 57.88 C 45.37 57.87 43.52 57.87 41.67 57.88 C 41.96 55.02 41.92 51.98 43.44 49.44 C 45.50 45.64 49.35 43.30 51.73 39.76 C 54.14 36.10 52.72 29.96 48.22 28.73 C 45.06 27.91 41.08 28.19 38.87 30.90 C 37.14 32.95 37.10 35.74 36.68 38.26 C 34.82 38.24 32.97 38.24 31.11 38.24 C 31.39 34.52 32.13 30.59 34.75 27.76 Z" />
<path fill="#404040" opacity="1.00" d=" M 41.62 62.94 C 43.71 62.95 45.79 62.95 47.88 62.94 C 47.87 65.08 47.87 67.23 47.88 69.38 C 45.79 69.37 43.71 69.37 41.62 69.38 C 41.63 67.23 41.63 65.08 41.62 62.94 Z" />
</g>
</svg>
